<?xml version="1.0" encoding="UTF-8"?>
<svg version="1.1" xmlns="http://www.w3.org/2000/svg" width="500" height="500">
<path d="M0 0 C1.78859677 0.64629216 3.58701508 1.26523408 5.38623047 1.88134766 C13.05608254 4.7245667 18.28334365 8.86476531 23.95263672 14.70556641 C24.70931641 15.46482422 25.46599609 16.22408203 26.24560547 17.00634766 C32.47151953 23.5724756 35.08206646 28.62337771 35.14013672 37.70556641 C35.09256831 39.37272605 35.03531368 41.03977874 34.95263672 42.70556641 C35.82404297 42.96208984 36.69544922 43.21861328 37.59326172 43.48291016 C47.36798821 47.04045596 55.62904856 54.50263044 62.95263672 61.70556641 C64.11085938 62.84445313 64.11085938 62.84445313 65.29248047 64.00634766 C82.57006105 82.05182071 89.45505583 107.02832111 90.48388672 131.43945312 C90.54618469 132.87134633 90.54618469 132.87134633 90.60974121 134.33216667 C91.05867023 145.30880801 91.23643261 156.28944587 91.39819336 167.27344131 C91.45420558 171.06970944 91.51446059 174.86589138 91.57568359 178.66207886 C91.71583278 187.39888442 91.85018787 196.13577454 91.98388672 204.87268066 C92.11671936 213.55090664 92.2522412 222.22907949 92.39233398 230.90719223 C92.45098431 234.60908206 92.50562035 238.31101619 92.56005859 242.01296997 C92.74405389 253.82635389 93.05515074 265.6104014 93.72705078 277.40670776 C94.66191807 294.18338987 94.91322606 309.55311167 83.12451172 322.75244141 C78.61507841 327.19302841 73.60305326 330.21458203 68.01513672 333.08056641 C67.37141113 333.41451416 66.72768555 333.74846191 66.06445312 334.0925293 C60.85688605 336.62465505 55.65042123 337.77773126 49.95263672 338.70556641 C50.06857178 339.58704346 50.18450684 340.46852051 50.30395508 341.37670898 C50.73992897 344.69956649 51.17393766 348.02266918 51.60668945 351.34594727 C51.79309744 352.77443291 51.98025065 354.20282155 52.16821289 355.63110352 C53.98374083 369.43395726 55.18035153 382.97744477 55.24780273 396.90405273 C55.25939673 398.56885222 55.27996362 400.23361246 55.30932617 401.89819336 C55.35216585 404.33814019 55.36818137 406.77700834 55.37841797 409.21728516 C55.39592606 409.95081711 55.41343414 410.68434906 55.43147278 411.44010925 C55.40000608 419.0192516 52.25297449 424.96999752 46.95263672 430.33056641 C39.55454174 437.32098678 30.59739806 440.6433505 21.14013672 443.95556641 C20.45443604 444.20201904 19.76873535 444.44847168 19.06225586 444.70239258 C4.9058137 449.39848101 -10.23594452 449.05253628 -24.97305298 449.42529297 C-47.13604743 450.01078507 -68.78939745 451.7575308 -90.7285614 454.85179138 C-133.24488658 460.7868227 -195.88362969 468.44098059 -232.79736328 441.33056641 C-238.28426661 436.8969953 -242.41679621 432.21924631 -243.82861328 425.09228516 C-244.87346875 413.69216564 -241.95137181 402.28189433 -239.51220703 391.22753906 C-238.01259527 383.0915152 -237.85349846 375.11608585 -237.76611328 366.85791016 C-237.74836904 365.49571158 -237.73017546 364.13351878 -237.71156311 362.77133179 C-237.67280201 359.88831915 -237.63647891 357.00529085 -237.6020813 354.1222229 C-237.5207452 347.358031 -237.42259003 340.59407322 -237.32556343 333.83009148 C-237.29351731 331.59258761 -237.26185227 329.35507857 -237.23020935 327.11756897 C-236.17873488 253.25778684 -236.17873488 253.25778684 -231.04736328 221.70556641 C-230.9163623 220.89265137 -230.78536133 220.07973633 -230.65039062 219.2421875 C-227.69276545 201.664524 -221.66805841 185.20083828 -213.48486328 169.39306641 C-213.05036865 168.55211426 -212.61587402 167.71116211 -212.16821289 166.84472656 C-208.8634912 160.70009613 -205.00847866 154.66668178 -200.04736328 149.70556641 C-199.52525742 143.1874011 -200.85852591 137.19871696 -202.18237305 130.84204102 C-206.84403332 108.41978854 -209.64380691 84.03780115 -203.04736328 61.70556641 C-202.86463867 61.0779541 -202.68191406 60.4503418 -202.49365234 59.80371094 C-197.73702104 44.05371581 -188.86066151 29.15784703 -177.04736328 17.70556641 C-176.19529297 16.85607422 -175.34322266 16.00658203 -174.46533203 15.13134766 C-156.58452335 -1.98204434 -133.80074634 -7.37401163 -110.04736328 -11.29443359 C-109.26603027 -11.42720703 -108.48469727 -11.55998047 -107.6796875 -11.69677734 C-71.76902008 -17.54098196 -33.97706812 -12.30659163 0 0 Z " fill="#625656" transform="translate(322.04736328125,28.29443359375)"/>
<path d="M0 0 C9.9030566 5.67682258 15.71632548 15.1631525 20.0625 25.5 C21.03602858 29.13450671 21.05589214 30.48393279 20 34 C18.4765625 36.28125 18.4765625 36.28125 16.625 38.5 C14.59021518 40.99250738 12.83130495 43.28503646 11.1875 46.0625 C10.795625 46.701875 10.40375 47.34125 10 48 C9.34 48 8.68 48 8 48 C7.78859375 48.67546875 7.5771875 49.3509375 7.359375 50.046875 C5.55363602 53.96968726 3.00209941 56.94839793 0.25 60.25 C-3.64508672 65.00886282 -7.37612512 69.73572667 -10.62109375 74.97265625 C-12.16212511 77.23836525 -13.91348144 79.28049913 -15.68237305 81.36987305 C-18.31768488 84.63019861 -20.5675796 88.17198054 -22.86914062 91.671875 C-23.86428804 93.14843561 -24.92692125 94.57906664 -26 96 C-26.66 96 -27.32 96 -28 96 C-28 98.31 -28 100.62 -28 103 C-27.20940186 102.97905273 -26.41880371 102.95810547 -25.60424805 102.93652344 C-21.96546536 102.85253722 -18.32688757 102.80107912 -14.6875 102.75 C-12.82254883 102.69972656 -12.82254883 102.69972656 -10.91992188 102.6484375 C-1.80745462 102.55276855 6.49415667 103.39532534 13.8125 109.25 C14.534375 110.1575 15.25625 111.065 16 112 C16.48984375 112.57621094 16.9796875 113.15242188 17.484375 113.74609375 C24.49203984 122.36690916 26.733526 130.38569398 26.375 141.5 C25.77032682 147.14361634 24.35909536 150.47949285 20.515625 154.5859375 C14.72165568 159.22624037 7.1337099 159.16110742 0.06054688 158.38574219 C-6.79895717 157.10161702 -12.74443484 153.08999245 -18.53125 149.375 C-25.92467121 144.64321043 -33.57664597 142.18776528 -42 140 C-42.75039551 139.80100098 -43.50079102 139.60200195 -44.27392578 139.39697266 C-65.48850318 133.95402267 -93.07974445 132.10611025 -113 143 C-116.23739948 145.14748404 -116.23739948 145.14748404 -118 148 C-118.19651605 152.61812721 -116.4428919 155.05205881 -113.49804688 158.47729492 C-111.01243362 161.00382196 -108.18830059 162.8279875 -105.1875 164.6875 C-104.60935547 165.06455078 -104.03121094 165.44160156 -103.43554688 165.83007812 C-96.38353893 170.29505111 -89.59550009 172.39692103 -81.3125 173.125 C-80.50449951 173.20572754 -79.69649902 173.28645508 -78.86401367 173.36962891 C-74.36831119 173.79205545 -69.88828013 174.06286422 -65.375 174.203125 C-64.44647217 174.23390137 -63.51794434 174.26467773 -62.5612793 174.29638672 C-60.77671272 174.34742415 -58.99154241 174.38130618 -57.20629883 174.39501953 C-51.22337176 174.55281872 -47.10347467 175.90753654 -42 179 C-40.56140625 179.84691406 -40.56140625 179.84691406 -39.09375 180.7109375 C-34.24179749 183.82378655 -29.5302905 187.01537419 -24.96484375 190.53515625 C-22.84266119 192.1173003 -20.6574636 193.55870829 -18.4375 195 C-7.52445063 202.26275729 -7.52445063 202.26275729 -6 207.3125 C-6 208.199375 -6 209.08625 -6 210 C-7 211 -7 211 -10.01171875 211.2109375 C-14.58230018 210.96920254 -18.45645337 209.94389618 -22.8125 208.625 C-24.41993592 208.16184599 -26.02800547 207.70088508 -27.63671875 207.2421875 C-28.77826416 206.91492676 -28.77826416 206.91492676 -29.94287109 206.58105469 C-44.08446479 202.58663349 -59.10767243 202.79717291 -73.70898438 202.75976562 C-75.99906009 202.75000401 -78.28825539 202.71878771 -80.578125 202.6875 C-93.31075873 202.59412014 -106.740957 203.06551044 -117.8125 210 C-118.93269531 210.680625 -120.05289063 211.36125 -121.20703125 212.0625 C-124.4139114 214.21842413 -124.4139114 214.21842413 -127 217 C-128.08358432 224.25853061 -124.03097967 230.35662846 -120 236 C-117.96669693 238.57187471 -115.89150395 241.10493943 -113.80859375 243.63671875 C-111.78941446 246.27517116 -110.42155067 248.88977127 -109.03515625 251.890625 C-105.50953955 259.07490054 -100.69514502 265.57746157 -95.875 271.9375 C-95.46749512 272.48108154 -95.05999023 273.02466309 -94.64013672 273.5847168 C-89.27151489 280.53750437 -82.65222027 285.23743539 -74 287 C-70.72482868 287.32176876 -67.47707006 287.37995884 -64.1875 287.375 C-63.30400879 287.37628906 -62.42051758 287.37757813 -61.51025391 287.37890625 C-54.91538687 287.27185067 -49.86777246 286.05670007 -44 283 C-43.34 283 -42.68 283 -42 283 C-42 282.34 -42 281.68 -42 281 C-40.3203125 279.2734375 -40.3203125 279.2734375 -38.125 277.375 C-37.04605469 276.42753906 -37.04605469 276.42753906 -35.9453125 275.4609375 C-34 274 -34 274 -32 274 C-31.73445313 273.27039063 -31.46890625 272.54078125 -31.1953125 271.7890625 C-30.002833 269.00661034 -28.63889462 266.82804414 -26.875 264.375 C-26.25367188 263.51003906 -25.63234375 262.64507812 -24.9921875 261.75390625 C-24.33476562 260.84511719 -23.67734375 259.93632812 -23 259 C-22.34257812 258.06027344 -21.68515625 257.12054688 -21.0078125 256.15234375 C-9.9077451 240.45244298 -9.9077451 240.45244298 -2 239 C3.43860347 238.40908534 7.34424332 238.86242485 12 242 C21.27770793 250.14118871 23.03232635 263.38617389 25.5625 274.875 C25.78886642 275.89096756 25.78886642 275.89096756 26.01980591 276.92745972 C28.59719407 288.5375669 30.87633363 300.14874883 32 312 C32.06864258 312.69947754 32.13728516 313.39895508 32.20800781 314.11962891 C33.17808007 325.35675087 33.17808007 325.35675087 29.4375 330.1875 C19.77938418 339.10784309 3.31873058 339.57126312 -9.0625 341.0625 C-9.75053711 341.14649048 -10.43857422 341.23048096 -11.14746094 341.3170166 C-51.44336148 346.21055298 -101.25604777 351.90266756 -137 328 C-139.77380327 325.59690943 -142.24693608 323.24691994 -144 320 C-144 318.68 -144 317.36 -144 316 C-144.66 316 -145.32 316 -146 316 C-145.4548996 310.3830893 -144.60564465 304.95228229 -143.4765625 299.41796875 C-141.10033785 286.25695146 -141.47238543 272.82677002 -141.39055252 259.49820328 C-141.36423094 255.79904898 -141.32040665 252.10011124 -141.27709961 248.40112305 C-141.22607094 243.98548007 -141.17548139 239.56984636 -141.13127136 235.15412903 C-140.4104655 163.2683371 -140.4104655 163.2683371 -135 130 C-134.86899902 129.18708496 -134.73799805 128.37416992 -134.60302734 127.53662109 C-131.64540217 109.95895759 -125.62069513 93.49527187 -117.4375 77.6875 C-117.00300537 76.84654785 -116.56851074 76.0055957 -116.12084961 75.13916016 C-112.81612792 68.99452973 -108.96111537 62.96111537 -104 58 C-104.11280313 55.97844916 -104.2404732 53.9577215 -104.375 51.9375 C-104.38006133 47.30638244 -104.25309281 44.28809719 -101.3125 40.625 C-87.29141211 27.28098678 -69.90369698 26.51681227 -51.72143555 26.95239258 C-50.86932495 26.97595825 -50.86932495 26.97595825 -50 27 C-49.82694336 26.42209717 -49.65388672 25.84419434 -49.47558594 25.2487793 C-46.3818367 15.38974641 -40.90305436 5.70760144 -32 0 C-21.01531619 -5.73113938 -11.17938492 -4.77367896 0 0 Z " fill="#BFB3B3" transform="translate(226,120)"/>
<path d="M0 0 C2.9453125 1.921875 2.9453125 1.921875 5.125 3.75 C5.87007812 4.34296875 6.61515625 4.9359375 7.3828125 5.546875 C10.32239739 10.00595546 9.42821107 14.64946617 8.50292969 19.72851562 C7.82456657 22.7920242 7.07813119 25.83215431 6.3125 28.875 C4.0149055 38.39694005 1.96115786 47.92875131 0.1875 57.5625 C-0.0189917 58.67286621 -0.2254834 59.78323242 -0.43823242 60.92724609 C-1.41738928 66.3202167 -2.2482458 71.68085075 -2.80053711 77.1340332 C-3.55512748 84.19319381 -5.48781792 91.10468673 -7.31640625 97.9453125 C-8.88810285 104.96855104 -9.25784676 112.07869327 -9.56298828 119.24829102 C-9.60538195 120.24411729 -9.64777561 121.23994356 -9.69145393 122.26594639 C-10.12516219 133.58816346 -10.08245041 144.90433934 -10.01403427 156.23280144 C-9.99150551 160.14579786 -9.97746523 164.05877609 -9.96633911 167.97181702 C-9.9334744 179.08064693 -9.89173705 190.1893939 -9.82861328 201.2980957 C-9.52636539 255.64880607 -9.52636539 255.64880607 -11.2578125 274.328125 C-11.36664764 275.54285995 -11.47548279 276.75759491 -11.58761597 278.00914001 C-12.71916693 288.14114687 -16.02886606 297.18377467 -24 304 C-24.66 304 -25.32 304 -26 304 C-26.33 304.99 -26.66 305.98 -27 307 C-29.00390625 308.28125 -29.00390625 308.28125 -31.5625 309.5 C-32.38878906 309.9021875 -33.21507812 310.304375 -34.06640625 310.71875 C-37.65320599 312.28528837 -41.33523405 313.62571277 -45 315 C-38.73 315.33 -32.46 315.66 -26 316 C-26 316.33 -26 316.66 -26 317 C-26.72960937 317.00410889 -27.45921875 317.00821777 -28.2109375 317.01245117 C-44.75987146 317.17206666 -60.96546646 318.26207601 -77.375 320.4375 C-78.2311792 320.5507663 -79.0873584 320.66403259 -79.96948242 320.7807312 C-80.82195557 320.89361481 -81.67442871 321.00649841 -82.55273438 321.12280273 C-84.24086637 321.34633532 -85.92901714 321.56972614 -87.6171875 321.79296875 C-88.43358704 321.90108383 -89.24998657 322.00919891 -90.09112549 322.12059021 C-195.58454815 335.92028267 -195.58454815 335.92028267 -232.75 308.625 C-238.24049514 304.18852661 -242.28035169 299.55599442 -243.796875 292.46484375 C-244.24939447 286.97369407 -243.56790489 281.46416598 -243 276 C-242.01 275.67 -241.02 275.34 -240 275 C-239.62875 276.051875 -239.2575 277.10375 -238.875 278.1875 C-235.24574082 286.41931968 -225.89509011 290.60030625 -218 294 C-177.76049298 309.28634663 -114.70412508 307.56521102 -74 293 C-70.24437408 290.82354691 -67.11413046 288.85560063 -65 285 C-61.95750139 267.18356672 -68.50292426 246.36967951 -72.4375 229 C-72.71343994 227.75476563 -72.98937988 226.50953125 -73.27368164 225.2265625 C-75.61554633 215.27346891 -78.20131975 205.92954539 -87 200 C-92.12590068 198.29136644 -96.4735783 198.54475142 -101.5625 200.0625 C-110.18209847 204.92081914 -114.74845529 212.85855198 -120 221 C-123.64409536 226.44728126 -127.14856401 231.54192368 -132 236 C-132.721875 236.763125 -133.44375 237.52625 -134.1875 238.3125 C-136 240 -136 240 -138 240 C-138 240.66 -138 241.32 -138 242 C-139.24735567 242.6509259 -140.49801832 243.29551669 -141.75 243.9375 C-142.79414063 244.47697266 -142.79414063 244.47697266 -143.859375 245.02734375 C-149.02748453 247.37562709 -154.10640732 247.2172903 -159.6875 247.25 C-160.54794922 247.270625 -161.40839844 247.29125 -162.29492188 247.3125 C-172.0552496 247.37134146 -179.83229563 244.70930467 -187 238 C-196.38369849 228.2106153 -203.56174229 216.04224393 -210.10546875 204.2265625 C-211.86623924 201.22780699 -213.73562169 198.75203265 -216 196.125 C-220.40365077 190.71902573 -223.21562328 185.6366557 -224.6875 178.8125 C-223.58786413 174.31398962 -220.7265262 172.53011516 -217 170 C-216.22398437 169.47019531 -215.44796875 168.94039062 -214.6484375 168.39453125 C-202.44160055 160.9266023 -188.20553161 160.52862852 -174.29101562 160.71875 C-172.00113362 160.74998454 -169.71194975 160.75975803 -167.421875 160.765625 C-153.58064063 160.83539545 -139.87352056 161.07756346 -126.375 164.4375 C-125.44816406 164.65470703 -124.52132812 164.87191406 -123.56640625 165.09570312 C-119.84359677 165.98246676 -116.22096027 166.92524853 -112.59375 168.15234375 C-109.32320552 169.22118133 -106.41638946 169.13665558 -103 169 C-103.28675159 165.51448498 -103.50963425 163.53980592 -105.8984375 160.91015625 C-106.71570313 160.30042969 -107.53296875 159.69070313 -108.375 159.0625 C-109.27734375 158.38574219 -110.1796875 157.70898438 -111.109375 157.01171875 C-114.80600565 154.43906364 -118.58033348 152.02114016 -122.41015625 149.65234375 C-124.7267635 148.17432736 -126.89177177 146.61905004 -129.0625 144.9375 C-132.86997996 141.99283774 -136.92268277 139.59255702 -141.09375 137.19921875 C-141.7228125 136.80347656 -142.351875 136.40773438 -143 136 C-143 135.67 -143 135.34 -143 135 C-142.11143311 135.06058594 -141.22286621 135.12117187 -140.30737305 135.18359375 C-124.87993829 136.21559556 -109.46730749 137.19731918 -94 137.25 C-92.92967529 137.25902344 -91.85935059 137.26804687 -90.7565918 137.27734375 C-82.23944701 137.24482263 -73.8845039 136.75230277 -66.5 132.125 C-65.6853125 131.63257813 -64.870625 131.14015625 -64.03125 130.6328125 C-61.87625515 128.90052818 -61.01317605 127.54395292 -60 125 C-59.34 125 -58.68 125 -58 125 C-57.30580437 123.34461042 -56.64896236 121.67363977 -56 120 C-55.60361328 119.12214844 -55.60361328 119.12214844 -55.19921875 118.2265625 C-50.85900371 107.48915848 -51.81559351 93.62706411 -56 83 C-60.30410909 73.83317864 -65.78395191 65.71926073 -71.98828125 57.75 C-79.18714787 47.90921922 -81.89608064 38.09708866 -81 26 C-79.70033769 18.36448391 -76.7620926 11.7195758 -73 5 C-72.61585938 4.20335937 -72.23171875 3.40671875 -71.8359375 2.5859375 C-68.3993875 -3.71791801 -63.86378399 -6.46322438 -57.21484375 -8.9609375 C-39.03377244 -14.07096329 -16.08334181 -9.15998959 0 0 Z " fill="#938584" transform="translate(322,161)"/>
<path d="M0 0 C1.34567284 0.2064963 2.69137837 0.41277963 4.03710938 0.61889648 C14.31991036 2.22683845 24.40596234 4.3495923 34.50683594 6.85180664 C36.89310656 7.44197811 39.28220559 8.01946561 41.671875 8.59570312 C49.43915385 10.48866407 57.01432709 12.57879637 64.56835938 15.2199707 C67.45972839 16.14747311 70.3020027 16.52583341 73.3125 16.875 C77.33893962 17.83417802 78.67433718 18.5692474 81.203125 21.9140625 C83.18779456 25.47614864 84.6083971 29.17105751 86 33 C86.35835937 33.91394531 86.71671875 34.82789063 87.0859375 35.76953125 C89.90044506 44.17432217 90.77838638 55.34919651 88.09765625 63.8671875 C87 66.0625 87 66.0625 85 69 C81.68574159 68.38597445 79.68293368 67.19461895 77 65.1875 C71.64352336 61.54090841 66.22855798 59.67434354 60 58 C58.89011719 57.69964844 57.78023437 57.39929688 56.63671875 57.08984375 C42.55498692 53.78102152 26.18076936 52.16122929 12.89453125 58.84375 C3.65044647 65.73003178 -1.15142416 78.87462617 -3 90 C-4.41300185 104.85670521 0.93207829 115.19930481 9.56640625 126.703125 C12.73533028 130.93161599 15.36792764 135.42500988 18 140 C18.37769531 140.57621094 18.75539063 141.15242187 19.14453125 141.74609375 C25.69767633 151.98078101 26.79830774 166.09409499 24.42578125 177.84375 C23.16613976 181.84261188 21.50898797 185.61832056 19 189 C18.34 189 17.68 189 17 189 C16.64421875 190.13888672 16.64421875 190.13888672 16.28125 191.30078125 C14.76832871 194.48806361 13.51059107 195.41067964 10.5 197.1875 C9.7059375 197.67605469 8.911875 198.16460937 8.09375 198.66796875 C-0.07188724 202.18372923 -8.54252135 202.32322897 -17.3125 202.25 C-19.04367065 202.24311157 -19.04367065 202.24311157 -20.80981445 202.23608398 C-35.48781123 202.08724391 -50.33363422 201.38597965 -64.89868164 199.4934082 C-68.86032461 198.98668677 -72.80597522 198.75198558 -76.796875 198.5703125 C-78.26565208 198.49663156 -79.73440137 198.42239511 -81.203125 198.34765625 C-83.47116711 198.2348402 -85.73914918 198.12547637 -88.0078125 198.02587891 C-101.70576969 197.41436296 -113.43305301 195.99738325 -125 188 C-125.73347656 187.51273438 -126.46695313 187.02546875 -127.22265625 186.5234375 C-131.70366008 183.39092267 -135.6563576 180.04168927 -138 175 C-138.375 171.9375 -138.375 171.9375 -137 169 C-125.70779153 157.67956101 -105.84322346 157.71024637 -90.97094727 157.6809082 C-80.59078778 157.79695038 -71.01843817 159.40417387 -61 162 C-59.97567871 162.24097412 -59.97567871 162.24097412 -58.93066406 162.48681641 C-46.77663156 165.36540305 -36.60991803 171.39115038 -26.0144043 177.86425781 C-19.7936991 181.37155639 -11.91083606 180.59061173 -5 180 C-0.22986106 178.47601578 2.17400607 176.18736627 5 172.125 C7.8249889 163.68696126 7.06243083 153.29181817 3.35546875 145.2890625 C1.33440891 141.87597586 -1.04323352 138.83148998 -3.609375 135.8125 C-5 134 -5 134 -5 132 C-6.65538958 131.30580437 -8.32636023 130.64896236 -10 130 C-10.86915039 129.6297168 -10.86915039 129.6297168 -11.75585938 129.25195312 C-18.90741958 126.48649927 -25.96867221 126.44845088 -33.5625 126.3125 C-34.85736328 126.27833984 -36.15222656 126.24417969 -37.48632812 126.20898438 C-40.65746544 126.12707308 -43.82834594 126.05773603 -47 126 C-47 123.69 -47 121.38 -47 119 C-46.34 119 -45.68 119 -45 119 C-44.79375 118.34 -44.5875 117.68 -44.375 117 C-41.5378099 110.80976706 -36.81965982 105.7708588 -32.5 100.5625 C-29.28612292 96.66413662 -26.40745931 92.71842536 -23.6796875 88.47265625 C-21.07029854 84.63139296 -18.20134212 80.99458655 -15.33813477 77.34033203 C-12.95049641 74.31304656 -12.95049641 74.31304656 -11 71 C-10.34 71 -9.68 71 -9 71 C-8.61521484 69.90171875 -8.61521484 69.90171875 -8.22265625 68.78125 C-6.58661016 65.05963716 -4.16896952 62.36377274 -1.55859375 59.28125 C0.20853104 56.69478163 0.80574699 55.12226174 1 52 C-1.76433176 41.82092421 -7.80939431 31.28343341 -16.63671875 25.25 C-24.67170363 21.00009064 -34.1253011 18.23693146 -43.1171875 20.54296875 C-54.78696357 24.52830737 -60.67633214 32.92178464 -65.9375 43.5625 C-66.97518527 45.70110746 -67.99238104 47.84694187 -69 50 C-69.56807373 50.01458252 -70.13614746 50.02916504 -70.72143555 50.04418945 C-96.71477267 50.59290436 -96.71477267 50.59290436 -118.515625 63.59912109 C-119.71607388 65.03434878 -120.86348841 66.51362944 -122 68 C-122.66 67.67 -123.32 67.34 -124 67 C-124.68603516 64.63012695 -124.68603516 64.63012695 -125.2890625 61.48828125 C-125.50965332 60.34407715 -125.73024414 59.19987305 -125.95751953 58.02099609 C-127.03697911 52.02355974 -128.04724305 46.0187894 -129 40 C-129.144375 39.17387207 -129.28875 38.34774414 -129.4375 37.49658203 C-130.11780846 33.36738023 -130.41624148 29.97571404 -129 26 C-125.76462341 22.49182606 -122.17306699 20.25590692 -118.00195312 18.05761719 C-115.96129512 16.9795525 -113.97545924 15.83081863 -111.984375 14.6640625 C-77.82610352 -4.88726602 -38.01717409 -6.149319 0 0 Z " fill="#4A4240" transform="translate(245,97)"/>
<path d="M0 0 C3.23350583 4.38403232 1.69272516 10.07079989 1.00097656 15.21191406 C-0.81819699 26.90660117 -4.4084333 39.45319276 -13.6328125 47.52734375 C-16.3203125 49.27734375 -16.3203125 49.27734375 -18.3203125 49.27734375 C-18.3203125 49.93734375 -18.3203125 50.59734375 -18.3203125 51.27734375 C-27.76843621 55.2555011 -36.92651625 52.9766094 -46.4453125 50.40234375 C-47.47785156 50.13292969 -48.51039063 49.86351563 -49.57421875 49.5859375 C-53.75000766 48.49544486 -57.91975851 47.38715294 -62.08203125 46.24609375 C-81.22271549 41.54908347 -101.22764938 39.77923861 -120.8828125 39.83984375 C-122.00301285 39.84005524 -122.00301285 39.84005524 -123.14584351 39.840271 C-134.31062598 39.87510843 -145.25082083 40.87883279 -156.3203125 42.27734375 C-157.29508545 42.39215088 -158.2698584 42.50695801 -159.27416992 42.62524414 C-180.19288877 45.1341512 -204.83697668 49.79400793 -220.3203125 65.27734375 C-220.62051833 59.58093813 -219.66294627 55.09103295 -217.8203125 49.71484375 C-217.41981689 48.53619751 -217.41981689 48.53619751 -217.01123047 47.33374023 C-209.30144566 25.61997452 -193.03179926 4.2390231 -172 -5.88671875 C-125.71859314 -26.83035131 -43.13787289 -32.0266026 0 0 Z " fill="#BFB3B3" transform="translate(338.3203125,35.72265625)"/>
<path d="M0 0 C0.61875 0.928125 0.61875 0.928125 1.25 1.875 C3.05573879 4.06768281 4.4090534 4.92788417 7 6 C5.63053367 9.63662111 3.98243865 12.93673001 2.0625 16.3125 C-4.01775426 27.33110711 -7.20061081 38.66985925 -4.234375 51.24609375 C-1.53187975 59.0205255 2.68021514 65.19307996 7.56640625 71.703125 C10.73533028 75.93161599 13.36792764 80.42500988 16 85 C16.37769531 85.57621094 16.75539063 86.15242188 17.14453125 86.74609375 C23.69767633 96.98078101 24.79830774 111.09409499 22.42578125 122.84375 C21.16613976 126.84261188 19.50898797 130.61832056 17 134 C16.34 134 15.68 134 15 134 C14.64421875 135.13888672 14.64421875 135.13888672 14.28125 136.30078125 C12.76832871 139.48806361 11.51059107 140.41067964 8.5 142.1875 C7.7059375 142.67605469 6.911875 143.16460937 6.09375 143.66796875 C-2.07188724 147.18372923 -10.54252135 147.32322897 -19.3125 147.25 C-21.04367065 147.24311157 -21.04367065 147.24311157 -22.80981445 147.23608398 C-37.48781123 147.08724391 -52.33363422 146.38597965 -66.89868164 144.4934082 C-70.86032461 143.98668677 -74.80597522 143.75198558 -78.796875 143.5703125 C-80.26565208 143.49663156 -81.73440137 143.42239511 -83.203125 143.34765625 C-85.47116711 143.2348402 -87.73914918 143.12547637 -90.0078125 143.02587891 C-103.70576969 142.41436296 -115.43305301 140.99738325 -127 133 C-127.73347656 132.51273438 -128.46695313 132.02546875 -129.22265625 131.5234375 C-133.70366008 128.39092267 -137.6563576 125.04168927 -140 120 C-140.375 116.9375 -140.375 116.9375 -139 114 C-127.70779153 102.67956101 -107.84322346 102.71024637 -92.97094727 102.6809082 C-82.59078778 102.79695038 -73.01843817 104.40417387 -63 107 C-62.31711914 107.16064941 -61.63423828 107.32129883 -60.93066406 107.48681641 C-48.77663156 110.36540305 -38.60991803 116.39115038 -28.0144043 122.86425781 C-21.7936991 126.37155639 -13.91083606 125.59061173 -7 125 C-2.22986106 123.47601578 0.17400607 121.18736627 3 117.125 C5.8249889 108.68696126 5.06243083 98.29181817 1.35546875 90.2890625 C-0.66559109 86.87597586 -3.04323352 83.83148998 -5.609375 80.8125 C-7 79 -7 79 -7 77 C-8.65538958 76.30580437 -10.32636023 75.64896236 -12 75 C-12.86915039 74.6297168 -12.86915039 74.6297168 -13.75585938 74.25195312 C-20.90741958 71.48649927 -27.96867221 71.44845088 -35.5625 71.3125 C-36.85736328 71.27833984 -38.15222656 71.24417969 -39.48632812 71.20898438 C-42.65746544 71.12707308 -45.82834594 71.05773603 -49 71 C-49 68.69 -49 66.38 -49 64 C-48.34 64 -47.68 64 -47 64 C-46.690625 63.01 -46.690625 63.01 -46.375 62 C-43.5378099 55.80976706 -38.81965982 50.7708588 -34.5 45.5625 C-31.28612292 41.66413662 -28.40745931 37.71842536 -25.6796875 33.47265625 C-23.07029854 29.63139296 -20.20134212 25.99458655 -17.33813477 22.34033203 C-14.95049641 19.31304656 -14.95049641 19.31304656 -13 16 C-12.34 16 -11.68 16 -11 16 C-10.7421875 15.27167969 -10.484375 14.54335937 -10.21875 13.79296875 C-8.95193547 10.88985212 -7.47591792 8.77821114 -5.5 6.3125 C-4.8915625 5.54550781 -4.283125 4.77851563 -3.65625 3.98828125 C-2 2 -2 2 0 0 Z " fill="#615654" transform="translate(247,152)"/>
<path d="M0 0 C7.7755198 3.48792464 13.70067235 11.18236111 17.3125 18.75 C18.3172944 23.49993718 18.15488516 28.16414103 18 33 C18.66 33.33 19.32 33.66 20 34 C19.01 34 18.02 34 17 34 C16.99742187 34.680625 16.99484375 35.36125 16.9921875 36.0625 C16.440164 49.89988915 10.72987548 65.72837655 0.6875 75.5625 C-3.78851762 78.94330116 -8.70740404 79.35450878 -14.20629883 78.76245117 C-16.41219271 78.3534891 -18.57395765 77.85806456 -20.75 77.3125 C-21.53874512 77.12606934 -22.32749023 76.93963867 -23.14013672 76.74755859 C-28.5778292 75.43379084 -33.89564688 73.83906771 -39.22265625 72.1328125 C-78.77469844 60.27129002 -126.06362125 50.00243311 -167 60 C-168.10142334 60.25740967 -168.10142334 60.25740967 -169.22509766 60.52001953 C-188.38945735 65.08373915 -206.16673666 73.21710635 -222 85 C-222.33 85 -222.66 85 -223 85 C-223.08164159 82.3118751 -223.14079668 79.626277 -223.1875 76.9375 C-223.21263672 76.18533203 -223.23777344 75.43316406 -223.26367188 74.65820312 C-223.3415313 68.66302754 -222.3579738 64.18184416 -218.703125 59.25 C-194.14502779 38.12475509 -151.71807459 36.78001729 -121.125 36.75 C-120.31251801 36.74866058 -119.50003601 36.74732117 -118.66293335 36.74594116 C-106.08047906 36.75041973 -93.85659317 37.4426382 -81.43457031 39.58544922 C-79.0412992 39.9929677 -76.64555212 40.34899408 -74.2421875 40.69140625 C-64.97282733 42.0544608 -56.07199226 44.17375618 -47.0859375 46.81640625 C-37.46349983 49.62973636 -28.97355725 51.09969626 -19 49 C-19 48.34 -19 47.68 -19 47 C-18.13375 46.484375 -17.2675 45.96875 -16.375 45.4375 C-8.66783715 40.49328232 -5.59258146 31.35387359 -3 23 C-2.608125 21.7625 -2.21625 20.525 -1.8125 19.25 C-0.32997018 13.00500714 -0.31634058 6.39340952 0 0 Z " fill="#918380" transform="translate(339,38)"/>
<path d="M0 0 C3.19705964 1.78976498 6.11221004 3.74870252 9 6 C10.010625 6.763125 11.02125 7.52625 12.0625 8.3125 C14.79103148 12.09723722 14.39554554 15.52583025 14 20 C13.28310557 24.00495486 12.30500556 27.93048818 11.3125 31.875 C9.0149055 41.39694005 6.96115786 50.92875131 5.1875 60.5625 C4.9810083 61.67286621 4.7745166 62.78323242 4.56176758 63.92724609 C3.58261072 69.3202167 2.7517542 74.68085075 2.19946289 80.1340332 C1.08724497 90.53878421 -1.49258648 101.55589549 -6 111 C-10.94395968 110.59388903 -12.80889676 108.53479653 -16 104.875 C-16.43787842 104.37726074 -16.87575684 103.87952148 -17.3269043 103.36669922 C-19.6317661 100.7142823 -21.80383405 98.00727621 -23.8125 95.125 C-25.99142206 92.0122542 -28.28585107 89.65246373 -31 87 C-44.9081477 72.31764129 -58.41538241 57.31961429 -58.375 36.1875 C-58.37338867 35.30819824 -58.37177734 34.42889648 -58.37011719 33.52294922 C-58.19216323 24.0756877 -55.80156608 16.55961641 -50 9 C-49.29875 8.01 -48.5975 7.02 -47.875 6 C-36.68305397 -7.25546108 -14.53057108 -7.24299939 0 0 Z " fill="#BEB2B2" transform="translate(317,158)"/>
<path d="M0 0 C3.58468861 1.1948962 4.05530287 2.46222187 5.703125 5.72265625 C6.00734375 6.35042969 6.3115625 6.97820312 6.625 7.625 C6.93695313 8.22957031 7.24890625 8.83414063 7.5703125 9.45703125 C9.61532036 13.59112041 10.82027384 17.32150345 11 22 C9.9609375 23.93359375 9.9609375 23.93359375 8.375 25.4375 C5.34023777 28.54283809 3.22189355 31.73020699 1.078125 35.49609375 C0.72234375 35.99238281 0.3665625 36.48867187 0 37 C-0.66 37 -1.32 37 -2 37 C-2.21140625 37.67546875 -2.4228125 38.3509375 -2.640625 39.046875 C-4.44636398 42.96968726 -6.99790059 45.94839793 -9.75 49.25 C-13.64508672 54.00886282 -17.37612512 58.73572667 -20.62109375 63.97265625 C-22.16212511 66.23836525 -23.91348144 68.28049913 -25.68237305 70.36987305 C-28.31768488 73.63019861 -30.5675796 77.17198054 -32.86914062 80.671875 C-33.86428804 82.14843561 -34.92692125 83.57906664 -36 85 C-36.66 85 -37.32 85 -38 85 C-38 87.31 -38 89.62 -38 92 C-37.20940186 91.97905273 -36.41880371 91.95810547 -35.60424805 91.93652344 C-31.96546536 91.85253722 -28.32688757 91.80107912 -24.6875 91.75 C-22.82254883 91.69972656 -22.82254883 91.69972656 -20.91992188 91.6484375 C-11.80745462 91.55276855 -3.50584333 92.39532534 3.8125 98.25 C4.8953125 99.61125 4.8953125 99.61125 6 101 C6.48984375 101.57621094 6.9796875 102.15242188 7.484375 102.74609375 C14.49203984 111.36690916 16.733526 119.38569398 16.375 130.5 C15.77032682 136.14361634 14.35909536 139.47949285 10.515625 143.5859375 C4.72165568 148.22624037 -2.8662901 148.16110742 -9.93945312 147.38574219 C-16.79895717 146.10161702 -22.74443484 142.08999245 -28.53125 138.375 C-46.49969478 126.87519534 -70.14539973 124.47182354 -91 124 C-91 123.67 -91 123.34 -91 123 C-89.97519531 122.74605469 -88.95039063 122.49210937 -87.89453125 122.23046875 C-86.53374653 121.88323403 -85.17307535 121.53555416 -83.8125 121.1875 C-83.13896484 121.02185547 -82.46542969 120.85621094 -81.77148438 120.68554688 C-77.71567305 119.63697126 -74.51823537 118.24472421 -71 116 C-70.34 116 -69.68 116 -69 116 C-68.73703125 115.26007813 -68.4740625 114.52015625 -68.203125 113.7578125 C-66.99742955 110.99410799 -65.68514288 109.16753414 -63.75 106.875 C-61.17989824 103.66633087 -59.09029622 100.51796028 -57.1875 96.875 C-54.77262646 92.25776179 -52.05418058 87.98561628 -49.125 83.6875 C-45.78193173 78.77406033 -42.65124232 73.81219804 -39.75 68.625 C-36.73045951 63.22992565 -33.48238962 58.10280792 -30 53 C-26.1957381 47.24254322 -22.87106112 41.22893087 -19.51293945 35.20581055 C-16.4559342 29.7484526 -13.22755788 24.42656107 -9.92578125 19.11328125 C-7.94125873 15.90503693 -5.98837861 12.68129147 -4.0625 9.4375 C-3.49660156 8.48746094 -2.93070312 7.53742188 -2.34765625 6.55859375 C-1.16727554 4.3175811 -0.45978349 2.47351879 0 0 Z " fill="#928584" transform="translate(236,131)"/>
<path d="M0 0 C1.21236328 0.01353516 1.21236328 0.01353516 2.44921875 0.02734375 C3.37154297 0.04474609 3.37154297 0.04474609 4.3125 0.0625 C4.8075 1.5475 4.8075 1.5475 5.3125 3.0625 C5.9725 3.0625 6.6325 3.0625 7.3125 3.0625 C9.09112749 10.41416029 9.09112749 10.41416029 7.27734375 14.25390625 C5.379799 16.93471272 3.35244843 19.48796702 1.3125 22.0625 C-0.87921256 25.04451413 -3.03090202 28.05503506 -5.1875 31.0625 C-6.31723209 32.62534437 -7.44743042 34.18785184 -8.578125 35.75 C-14.58055896 43.63135945 -14.58055896 43.63135945 -19.6875 52.0625 C-20.3475 52.0625 -21.0075 52.0625 -21.6875 52.0625 C-22.0175 53.7125 -22.3475 55.3625 -22.6875 57.0625 C-23.3475 57.0625 -24.0075 57.0625 -24.6875 57.0625 C-24.97625 57.660625 -25.265 58.25875 -25.5625 58.875 C-26.6875 61.0625 -26.6875 61.0625 -28.6875 64.0625 C-29.3475 64.0625 -30.0075 64.0625 -30.6875 64.0625 C-30.790625 64.61808594 -30.89375 65.17367187 -31 65.74609375 C-31.82943175 68.54071321 -33.13948419 70.6578498 -34.6875 73.125 C-36.37546347 75.82330698 -37.67799361 78.03398084 -38.6875 81.0625 C-39.3475 81.0625 -40.0075 81.0625 -40.6875 81.0625 C-40.914375 81.701875 -41.14125 82.34125 -41.375 83 C-43.93278774 88.96817139 -47.33714044 94.51070514 -50.6875 100.0625 C-51.02740967 100.63468262 -51.36731934 101.20686523 -51.7175293 101.79638672 C-65.3097679 124.60325597 -65.3097679 124.60325597 -72.6875 127.0625 C-72.6875 127.7225 -72.6875 128.3825 -72.6875 129.0625 C-73.3475 129.0625 -74.0075 129.0625 -74.6875 129.0625 C-74.6875 129.7225 -74.6875 130.3825 -74.6875 131.0625 C-78.14988087 132.79369043 -81.90167655 132.53320629 -85.6875 132.0625 C-88.25 130.5 -88.25 130.5 -89.6875 128.0625 C-90.6025589 122.11461716 -88.95045751 117.90882296 -85.6875 113.0625 C-82.82925443 109.59217434 -79.77338957 106.33020958 -76.6875 103.0625 C-75.20094456 101.44425652 -73.72131403 99.81961337 -72.25 98.1875 C-71.29287109 97.13949219 -71.29287109 97.13949219 -70.31640625 96.0703125 C-68.75103205 94.14081049 -67.69657388 92.32404247 -66.6875 90.0625 C-66.0275 90.0625 -65.3675 90.0625 -64.6875 90.0625 C-64.6875 89.4025 -64.6875 88.7425 -64.6875 88.0625 C-63.69688906 87.05319828 -62.69418874 86.05576622 -61.6875 85.0625 C-50.29391381 69.779537 -41.48795856 53.93942519 -35.23828125 35.921875 C-30.92048032 23.57408968 -25.03472807 9.42931954 -12.8046875 3.0859375 C-8.47423328 1.14719858 -4.73113117 -0.06856712 0 0 Z " fill="#D4CBCB" transform="translate(208.6875,115.9375)"/>
<path d="M0 0 C2.28988201 0.03123454 4.57906588 0.04100803 6.86914062 0.046875 C20.34924078 0.11517961 33.8925325 0.21738287 47.04101562 3.46875 C47.95858643 3.68797119 48.87615723 3.90719238 49.8215332 4.13305664 C78.07663425 11.02791159 78.07663425 11.02791159 89.29101562 18.28125 C89.41601562 21.15625 89.41601562 21.15625 89.29101562 24.28125 C87.29101562 26.28125 87.29101562 26.28125 84.07836914 26.49755859 C80.41719607 26.28845659 77.24038725 25.72639063 73.69335938 24.8203125 C72.47970703 24.51351563 71.26605469 24.20671875 70.015625 23.890625 C68.76587891 23.56578125 67.51613281 23.2409375 66.22851562 22.90625 C64.97490234 22.58914063 63.72128906 22.27203125 62.4296875 21.9453125 C53.14604189 19.57628013 53.14604189 19.57628013 49.27758789 18.24145508 C36.46105178 14.1208439 22.06117472 14.81444615 8.76660156 14.74584961 C6.44936262 14.72778179 4.13219338 14.69359714 1.81542969 14.64331055 C-12.51833569 14.33227959 -23.2718506 14.75801682 -35.70898438 22.28125 C-38.35339076 23.1627188 -39.98959189 23.44299818 -42.70898438 23.46875 C-43.38960938 23.48292969 -44.07023437 23.49710937 -44.77148438 23.51171875 C-46.70898438 23.28125 -46.70898438 23.28125 -49.70898438 21.28125 C-50.33398438 18.53125 -50.33398438 18.53125 -49.70898438 15.28125 C-47.73938558 12.75912349 -45.34327264 11.06979308 -42.70898438 9.28125 C-41.93296875 8.75144531 -41.15695313 8.22164063 -40.35742188 7.67578125 C-28.15058492 0.2078523 -13.91451598 -0.19012148 0 0 Z " fill="#625755" transform="translate(147.708984375,321.71875)"/>
<path d="M0 0 C0 0.66 0 1.32 0 2 C2.97 2.495 2.97 2.495 6 3 C7.0326802 5.78823655 7.04509293 6.8677274 6.0625 9.75 C5.711875 10.4925 5.36125 11.235 5 12 C9.455 12.99 9.455 12.99 14 14 C14.49065421 20.37850467 14.49065421 20.37850467 12.125 23.375 C8.70652104 25.98913097 6.25091655 26.34030203 1.91015625 26.28515625 C0 26 0 26 -2 24.25 C-3 22 -3 22 -3 18 C-3.55945313 18.27714844 -4.11890625 18.55429687 -4.6953125 18.83984375 C-11.23026763 21.79213055 -16.94205644 22.49675539 -24.09375 22.62890625 C-25.0528125 22.75136719 -26.011875 22.87382813 -27 23 C-27.66 23.99 -28.32 24.98 -29 26 C-29.66 26 -30.32 26 -31 26 C-31.268125 26.639375 -31.53625 27.27875 -31.8125 27.9375 C-33 30 -33 30 -36 31 C-36 31.66 -36 32.32 -36 33 C-36.66 33 -37.32 33 -38 33 C-38 33.66 -38 34.32 -38 35 C-43.85927818 36.67407948 -50.10985609 36.52003714 -56 35 C-56 34.34 -56 33.68 -56 33 C-56.66 33 -57.32 33 -58 33 C-58.66 30.69 -59.32 28.38 -60 26 C-61.65 27.98 -63.3 29.96 -65 32 C-65.99 31.67 -66.98 31.34 -68 31 C-51.23985083 12.90889781 -25.15045495 0 0 0 Z " fill="#D5CCCD" transform="translate(210,18)"/>
<path d="M0 0 C1.53419334 -0.00461494 1.53419334 -0.00461494 3.09938049 -0.00932312 C4.20861374 -0.0021376 5.31784698 0.00504791 6.46069336 0.01245117 C8.18817055 0.0131385 8.18817055 0.0131385 9.95054626 0.01383972 C12.39933292 0.01686609 14.84811759 0.02476378 17.296875 0.03710938 C20.98371486 0.05509396 24.67029907 0.05762077 28.35717773 0.05737305 C38.67452816 0.07196841 48.98992003 0.12392553 59.29663086 0.62963867 C59.98910416 0.6597554 60.68157745 0.68987213 61.39503479 0.72090149 C65.87334988 0.98341846 69.74289172 1.89080318 73.98803711 3.24291992 C72.87414031 7.97698134 70.27474228 10.06638414 66.47241211 12.75854492 C51.00233603 22.00167214 32.72417065 24.89004466 15.23803711 20.68041992 C7.42869076 18.36408838 -1.69339704 14.74148912 -7.01196289 8.24291992 C-7.69946289 5.05541992 -7.69946289 5.05541992 -8.01196289 2.24291992 C-4.73351709 0.05728939 -3.79744343 -0.00602374 0 0 Z " fill="#625654" transform="translate(127.011962890625,346.757080078125)"/>
<path d="M0 0 C2.36898916 1.5691369 3.35459371 2.59065507 5 5 C4.8079403 7.90375981 4.53162556 9.46297723 2.4609375 11.5546875 C-10.10778517 19.51017114 -26.68968725 28.86041649 -42 27 C-42.66 26.67 -43.32 26.34 -44 26 C-44.85212093 16.20060928 -39.87197737 8.41675846 -34.9765625 0.25 C-27.45046907 -8.3172526 -8.92460185 -4.83089169 0 0 Z " fill="#BEB2B2" transform="translate(237,227)"/>
<path d="M0 0 C-7.4624247 20.28365704 -16.02844857 37.5810595 -29 55 C-29.33 54.34 -29.66 53.68 -30 53 C-28.86091748 50.21858951 -27.65795951 47.52677518 -26.375 44.8125 C-19.32174549 30.46067157 -19.32174549 30.46067157 -17 15 C-27.88022649 15.37518022 -37.07055729 20.0427307 -46 26 C-46.66 26 -47.32 26 -48 26 C-48.33 26.99 -48.66 27.98 -49 29 C-49.99 29.33 -50.98 29.66 -52 30 C-53.75167616 24.95105106 -54.69189326 21.26366792 -53 16 C-39.68985894 -0.17748528 -19.11835286 -0.52873051 0 0 Z " fill="#928584" transform="translate(176,147)"/>
<path d="M0 0 C6.83056946 0.0221054 13.05767884 2.88374833 19.3125 5.375 C19.3125 6.035 19.3125 6.695 19.3125 7.375 C20.116875 7.560625 20.92125 7.74625 21.75 7.9375 C27.3870309 10.21209142 32.0277559 14.0902559 36.3125 18.375 C36.75 20.75 36.75 20.75 36.3125 23.375 C34.08118131 26.00853064 32.29379879 27.24811209 28.83911133 27.69482422 C25.88317628 27.76884383 22.95515655 27.72331615 20 27.625 C18.45989258 27.59792969 18.45989258 27.59792969 16.88867188 27.5703125 C14.36232115 27.52331063 11.83789531 27.45762272 9.3125 27.375 C9.3125 26.715 9.3125 26.055 9.3125 25.375 C8.61125 25.375 7.91 25.375 7.1875 25.375 C1.79367365 23.49888649 -0.60507046 18.07080627 -3.5625 13.4375 C-5.04710675 9.3960705 -5.15471778 5.64285474 -4.6875 1.375 C-3.6875 0.375 -3.6875 0.375 0 0 Z " fill="#4A4240" transform="translate(164.6875,263.625)"/>
<path d="M0 0 C1.17414853 5.02210065 1.60806182 8.79932402 -1.0625 13.375 C-3.6315321 16.88904391 -5.73427949 18.73608281 -10 20 C-13.68238303 20.21870507 -17.31676403 20.17695262 -21 20 C-21 19.34 -21 18.68 -21 18 C-21.99 17.67 -22.98 17.34 -24 17 C-24.44286287 10.79991975 -23.92022233 6.03037379 -20 1 C-13.6217491 -2.92507747 -6.7743178 -3.3871589 0 0 Z " fill="#D4CBCC" transform="translate(303,159)"/>
<path d="M0 0 C3.2491957 2.64749279 4.46537246 5.70235289 5.01171875 9.81640625 C5.1980784 14.12838298 5.1075785 16.66521219 2.875 20.4375 C-0.50636465 23.43242297 -3.84176681 23.8297798 -8.30859375 23.796875 C-10.78867636 23.27475235 -11.62378597 22.4779241 -13.25 20.5625 C-16.64520271 15.31536854 -17.06552863 10.49963285 -16.3125 4.375 C-12.19807331 -1.24804982 -6.45321891 -1.74411322 0 0 Z " fill="#D4CBCC" transform="translate(146.3125,430.625)"/>
<path d="M0 0 C0.350625 0.639375 0.70125 1.27875 1.0625 1.9375 C2.93655441 4.36277863 2.93655441 4.36277863 6.5 4.5 C10 5 10 5 11.9375 6.625 C13.45521284 10.01753459 13.43799353 12.30834022 13 16 C11.33929512 20.14750397 9.12869519 24.05033838 5 26 C2.08890888 26.47238801 0.01715646 26.33523961 -3 26 C-4.875 24.25 -4.875 24.25 -6 22 C-6.391875 21.34 -6.78375 20.68 -7.1875 20 C-8 18 -8 18 -8 14 C-6.7578125 12.0703125 -6.7578125 12.0703125 -5.125 10.125 C-2.54370229 6.87402599 -1.02028821 4.08115284 0 0 Z " fill="#D4CBCC" transform="translate(123,173)"/>
<path d="M0 0 C3.18777942 1.21439216 4.36526549 2.80938054 5.89453125 5.82421875 C7.21856541 9.76799965 7.59007652 13.94100169 6.625 18 C4.5013614 20.22408097 3.35825223 20.97693412 0.265625 21.07421875 C-0.91773438 20.88279297 -0.91773438 20.88279297 -2.125 20.6875 C-2.92421875 20.56761719 -3.7234375 20.44773437 -4.546875 20.32421875 C-5.15015625 20.21722656 -5.7534375 20.11023438 -6.375 20 C-6.705 19.01 -7.035 18.02 -7.375 17 C-8.035 17 -8.695 17 -9.375 17 C-9.375 16.34 -9.375 15.68 -9.375 15 C-10.035 15 -10.695 15 -11.375 15 C-12.25 11.8125 -12.25 11.8125 -12.375 8 C-10.609912 5.67721319 -8.88330238 4.62301919 -6.375 3 C-5.715 3 -5.055 3 -4.375 3 C-4.375 2.34 -4.375 1.68 -4.375 1 C-2.375 0 -2.375 0 0 0 Z " fill="#4B4240" transform="translate(132.375,266)"/>
<path d="M0 0 C1.99825961 2.99738941 2.27550398 3.63347508 2.25 7 C2.25515625 7.680625 2.2603125 8.36125 2.265625 9.0625 C2 11 2 11 0 14 C-0.66 14 -1.32 14 -2 14 C-2.33 14.99 -2.66 15.98 -3 17 C-6.69486103 19.46324069 -8.63293092 19.38991688 -13 19 C-14.9375 18 -14.9375 18 -16 16 C-16.43478898 12.06228847 -16.25517019 8.76551058 -15 5 C-14.34 5 -13.68 5 -13 5 C-12.7525 4.38125 -12.505 3.7625 -12.25 3.125 C-9.27930478 -1.92518187 -5.26487685 -1.26747035 0 0 Z " fill="#D4CBCB" transform="translate(152,56)"/>
<path d="M0 0 C1.5625 1.125 1.5625 1.125 2.5625 3.125 C2.9375 5.9375 2.9375 5.9375 2.5625 9.125 C0.389865 11.69785724 -1.41743838 13.61496919 -4.4375 15.125 C-6.26684565 15.27179934 -8.10250243 15.34602635 -9.9375 15.375 C-11.40703125 15.41367187 -11.40703125 15.41367187 -12.90625 15.453125 C-13.7415625 15.34484375 -14.576875 15.2365625 -15.4375 15.125 C-17.4375 12.125 -17.4375 12.125 -17.125 9.1875 C-16.898125 8.176875 -16.67125 7.16625 -16.4375 6.125 C-16.355 5.403125 -16.2725 4.68125 -16.1875 3.9375 C-13.60584375 -2.3015026 -5.35722905 -1.92310786 0 0 Z " fill="#D4CBCC" transform="translate(130.4375,297.875)"/>
<path d="M0 0 C3.5 0.1875 3.5 0.1875 5.5 1.1875 C5.5 3.4975 5.5 5.8075 5.5 8.1875 C2.79165469 9.95834117 1.60735541 10.19802504 -1.6875 9.875 C-4.5 9.1875 -4.5 9.1875 -5.5 8.1875 C-5.6875 5.25 -5.6875 5.25 -5.5 2.1875 C-3.5 0.1875 -3.5 0.1875 0 0 Z " fill="#D3CAC9" transform="translate(276.5,185.8125)"/>
<path d="M0 0 C1.50559539 1.96382007 2.89131683 3.78263366 4 6 C3.34 6 2.68 6 2 6 C2 6.99 2 7.98 2 9 C-1.33333333 12 -1.33333333 12 -4 12 C-4.33 15.3 -4.66 18.6 -5 22 C-8 18 -8 18 -8 14 C-6.7578125 12.0703125 -6.7578125 12.0703125 -5.125 10.125 C-2.54370229 6.87402599 -1.02028821 4.08115284 0 0 Z " fill="#CDC7C6" transform="translate(123,173)"/>
<path d="M0 0 C0.66 0.66 1.32 1.32 2 2 C-2.95 8.93 -2.95 8.93 -8 16 C-8.33 15.34 -8.66 14.68 -9 14 C-8.14453125 11.50390625 -8.14453125 11.50390625 -6.8125 8.5625 C-6.17248047 7.11037109 -6.17248047 7.11037109 -5.51953125 5.62890625 C-3.958763 2.92865681 -2.61045153 1.64900043 0 0 Z " fill="#978C8B" transform="translate(155,186)"/>
<path d="M0 0 C0.86625 0.5259375 0.86625 0.5259375 1.75 1.0625 C4.35801776 2.14917407 5.39417629 1.93065133 8 1 C6.55746343 4.36591866 4.66735273 6.51047079 2 9 C0 3.375 0 3.375 0 0 Z " fill="#605957" transform="translate(120,156)"/>
<path d="M0 0 C0.99 0.33 1.98 0.66 3 1 C-0.1254959 3.64465038 -3.08788267 4.84414715 -7 6 C-6.67 4.35 -6.34 2.7 -6 1 C-4.7934375 1.0309375 -4.7934375 1.0309375 -3.5625 1.0625 C-1.06645115 1.29633621 -1.06645115 1.29633621 0 0 Z " fill="#6F6666" transform="translate(393,356)"/>
<path d="M0 0 C1.65 0 3.3 0 5 0 C5 1.65 5 3.3 5 5 C3.35 5.66 1.7 6.32 0 7 C0 4.69 0 2.38 0 0 Z " fill="#695E5D" transform="translate(356,72)"/>
<path d="M0 0 C1.3609623 2.7219246 0.70366248 4.1831957 0.0625 7.125 C-0.13214844 8.03507813 -0.32679687 8.94515625 -0.52734375 9.8828125 C-0.68332031 10.58148438 -0.83929688 11.28015625 -1 12 C-3.62386487 8.93882432 -4 8.26826873 -4 4 C-2 1.75 -2 1.75 0 0 Z " fill="#C7C0BF" transform="translate(119,183)"/>
<path d="M0 0 C0.66 0.33 1.32 0.66 2 1 C-0.31 3.64 -2.62 6.28 -5 9 C-5.99 8.67 -6.98 8.34 -8 8 C-5.36 5.36 -2.72 2.72 0 0 Z " fill="#DCD7D7" transform="translate(150,41)"/>
<path d="M0 0 C-0.33 0.99 -0.66 1.98 -1 3 C-2.32303717 3.3721042 -3.65737935 3.70630173 -5 4 C-5.33 4.66 -5.66 5.32 -6 6 C-8.0625 6.625 -8.0625 6.625 -10 7 C-3.18421053 0 -3.18421053 0 0 0 Z " fill="#C5BCBC" transform="translate(199,118)"/>
<path d="M0 0 C3 1 3 1 6 3 C3.36 3.66 0.72 4.32 -2 5 C-2 4.01 -2 3.02 -2 2 C-1.34 2 -0.68 2 0 2 C0 1.34 0 0.68 0 0 Z " fill="#7D7576" transform="translate(341,468)"/>
<path d="M0 0 C2.875 0.3125 2.875 0.3125 6 1 C6.66 1.99 7.32 2.98 8 4 C7.01 4.495 7.01 4.495 6 5 C3.98079663 3.69593116 1.98075027 2.36176581 0 1 C0 0.67 0 0.34 0 0 Z " fill="#6A5F5C" transform="translate(120,284)"/>
</svg>
